<svg width="50" height="50" viewBox="0 0 50 50" fill="none" xmlns="http://www.w3.org/2000/svg">
<path d="M3.30005 37.1906V24.9304C1.45002 25.1404 0 26.7204 0 28.6305V33.4806C0 35.3906 1.45002 36.9806 3.30005 37.1906Z" fill="#FF5703"/>
<path d="M46.6992 24.9304V37.1906C48.5592 36.9706 49.9993 35.3906 49.9993 33.4806V28.6305C49.9993 26.7204 48.5592 25.1404 46.6992 24.9304Z" fill="#FF5703"/>
<path d="M44.6995 40.3801V24.7699C44.6995 22.1898 42.9794 19.9298 40.5294 19.2498C35.7693 17.9397 30.8892 17.2597 25.9992 17.1697V12.4297C28.1492 11.9697 29.7692 10.0596 29.7692 7.76959C29.7692 5.13955 27.6292 2.99951 24.9991 2.99951C22.3691 2.99951 20.2291 5.13955 20.2291 7.76959C20.2291 10.0596 21.8491 11.9697 23.9991 12.4297V17.1697C19.109 17.2497 14.229 17.9397 9.46889 19.2498C7.01886 19.9298 5.29883 22.1898 5.29883 24.7699V40.3801C5.29883 43.5302 7.86887 46.1002 11.0189 46.1002H38.9794C42.1294 46.1002 44.6995 43.5302 44.6995 40.3801ZM22.2291 7.77959C22.2291 6.24956 23.4691 5.00954 24.9991 5.00954C26.5292 5.00954 27.7692 6.24956 27.7692 7.77959C27.7692 9.30961 26.5292 10.5496 24.9991 10.5496C23.4691 10.5496 22.2291 9.30961 22.2291 7.77959ZM13.339 29.0199C13.339 26.6599 15.259 24.7399 17.619 24.7399C19.9791 24.7399 21.8991 26.6599 21.8991 29.0199C21.8991 31.38 19.9791 33.3 17.619 33.3C15.259 33.3 13.339 31.38 13.339 29.0199ZM31.0492 39.3201C29.0392 40.1201 27.0192 40.5201 24.9991 40.5201C22.9791 40.5201 20.9591 40.1201 18.949 39.3201C18.439 39.1101 18.189 38.5301 18.389 38.0201C18.589 37.5101 19.169 37.2601 19.6891 37.4601C23.2591 38.8901 26.7292 38.8901 30.2992 37.4601C30.8192 37.2501 31.3892 37.5001 31.5992 38.0201C31.8092 38.5301 31.5592 39.1101 31.0492 39.3201ZM32.3793 33.3C30.0192 33.3 28.0992 31.38 28.0992 29.0199C28.0992 26.6599 30.0192 24.7399 32.3793 24.7399C34.7393 24.7399 36.6593 26.6599 36.6593 29.0199C36.6593 31.38 34.7393 33.3 32.3793 33.3Z" fill="#FF5703"/>
</svg>
