<svg width="50" height="50" viewBox="0 0 50 50" fill="none" xmlns="http://www.w3.org/2000/svg">
<g clip-path="url(#clip0_215_740)">
<path d="M36.7188 37.5273L26.4648 31.668V43.9921L36.7188 49.903V37.5273Z" fill="#FF5703"/>
<path d="M39.6486 49.9026L49.1903 44.448C49.6866 44.1993 50.0002 43.6927 50.0002 43.1376V31.668L39.6486 37.527V49.9026Z" fill="#FF5703"/>
<path d="M24.4054 0.0287591L14.2404 5.33577L25.0002 11.4481L35.7599 5.33577L25.5949 0.0287591C25.2165 -0.139469 24.7839 -0.139469 24.4054 0.0287591Z" fill="#FF5703"/>
<path d="M49.0637 28.8284L38.1842 23.4375L27.4023 28.8284L38.1842 34.9903L49.0637 28.8284Z" fill="#FF5703"/>
<path d="M0.809479 44.4484L10.3516 49.903V37.5273L0 31.668V43.138C0 43.693 0.313187 44.1996 0.809479 44.4484Z" fill="#FF5703"/>
<path d="M13.2814 49.9026L23.5353 44.0234V31.668L13.2814 37.527V49.9026Z" fill="#FF5703"/>
<path d="M0.9375 28.8284L11.817 34.9903L22.5989 28.8284L11.817 23.4375L0.9375 28.8284Z" fill="#FF5703"/>
<path d="M26.465 26.0226L36.7189 20.8945V8.13281L26.465 13.9918V26.0226Z" fill="#FF5703"/>
<path d="M13.2812 20.8949L23.5352 26.023V13.9922L13.2812 8.13281V20.8949Z" fill="#FF5703"/>
</g>
<defs>
<clipPath id="clip0_215_740">
<rect width="50" height="50" fill="white"/>
</clipPath>
</defs>
</svg>
