<svg width="51" height="50" viewBox="0 0 51 50" fill="none" xmlns="http://www.w3.org/2000/svg">
<path d="M7.04297 26.2578H8.39062V30.3008C8.39062 30.7981 8.66437 31.255 9.10271 31.4891C9.53473 31.7211 10.0682 31.7007 10.4858 31.4221L18.3219 26.2578H31.3906C33.6234 26.2578 35.4336 24.4476 35.4336 22.2148V6.04297C35.4336 3.81021 33.6234 2 31.3906 2H7.04297C4.81021 2 3 3.81021 3 6.04297V22.2148C3 24.4476 4.81021 26.2578 7.04297 26.2578ZM27.3477 7.39063C28.092 7.39063 28.6953 7.99391 28.6953 8.73828C28.6953 9.48265 28.092 10.0859 27.3477 10.0859C26.6033 10.0859 26 9.48265 26 8.73828C26 7.99391 26.6033 7.39063 27.3477 7.39063ZM27.3477 12.7813C28.092 12.7813 28.6953 13.3845 28.6953 14.1289C28.6953 14.8733 28.092 15.4766 27.3477 15.4766C26.6033 15.4766 26 14.8733 26 14.1289C26 13.3845 26.6033 12.7813 27.3477 12.7813ZM11.0859 7.39063H21.957C22.7018 7.39063 23.3047 7.99356 23.3047 8.73828C23.3047 9.483 22.7018 10.0859 21.957 10.0859H11.0859C10.3412 10.0859 9.73828 9.483 9.73828 8.73828C9.73828 7.99356 10.3412 7.39063 11.0859 7.39063ZM11.0859 12.7813H21.957C22.7018 12.7813 23.3047 13.3842 23.3047 14.1289C23.3047 14.8736 22.7018 15.4766 21.957 15.4766H11.0859C10.3412 15.4766 9.73828 14.8736 9.73828 14.1289C9.73828 13.3842 10.3412 12.7813 11.0859 12.7813ZM11.0859 18.1719H27.3477C28.0924 18.1719 28.6953 18.7748 28.6953 19.5195C28.6953 20.2643 28.0924 20.8672 27.3477 20.8672H11.0859C10.3412 20.8672 9.73828 20.2643 9.73828 19.5195C9.73828 18.7748 10.3412 18.1719 11.0859 18.1719Z" fill="#FF5703"/>
<path d="M44.8672 18.1719H38.1289V22.2148C38.1289 25.93 35.1058 28.9531 31.3906 28.9531H19.1378L16.5664 30.6675V38.3867C16.5664 40.6195 18.3766 42.4297 20.6094 42.4297H33.6781L41.4243 47.7736C41.8423 48.0519 42.3754 48.0726 42.8074 47.8407C43.2458 47.6066 43.5195 47.1496 43.5195 46.6523V42.4297H44.8672C47.0999 42.4297 49 40.6195 49 38.3867V22.2148C49 19.9821 47.0999 18.1719 44.8672 18.1719ZM40.8242 37.0391H24.6523C23.9076 37.0391 23.3047 36.4361 23.3047 35.6914C23.3047 34.9467 23.9076 34.3438 24.6523 34.3438H40.8242C41.5689 34.3438 42.1719 34.9467 42.1719 35.6914C42.1719 36.4361 41.5689 37.0391 40.8242 37.0391Z" fill="#FF5703"/>
</svg>
