<svg width="50" height="50" viewBox="0 0 50 50" fill="none" xmlns="http://www.w3.org/2000/svg">
<path d="M45.3363 17.5023C43.8623 15.6577 41.8581 14.2825 39.6256 13.5686C38.8911 10.4616 37.167 7.64315 34.7108 5.56075C32.0019 3.26425 28.5518 1.99951 24.9958 1.99951H24.9734H24.951C21.395 1.99951 17.9449 3.26425 15.2359 5.56075C12.7796 7.64315 11.0556 10.4615 10.3211 13.5686C8.08856 14.2825 6.0844 15.6577 4.6104 17.5023C2.92695 19.6089 2 22.257 2 24.9586C2 25.0478 2.00099 25.1367 2.00296 25.2255C2.12484 30.7611 6.14368 35.2992 11.3777 36.3842L11.3779 23.8369V23.8274C11.3779 22.2873 12.0586 19.4513 16.6179 17.7621C18.8802 16.924 21.8476 16.4624 24.9734 16.4624C28.0992 16.4624 31.0665 16.924 33.3289 17.7621C37.8881 19.4513 38.5689 22.2873 38.5689 23.8274L38.5692 36.3842C43.8032 35.2991 47.822 30.7611 47.9439 25.2255C47.9459 25.1367 47.9469 25.0478 47.9469 24.9586C47.9467 22.2571 47.0197 19.6089 45.3363 17.5023Z" fill="#FF5703"/>
<path d="M14.0703 29.5033C14.2552 29.8495 14.992 30.4995 16.7186 31.1001C18.9025 31.8598 21.8335 32.2782 24.9715 32.2782C28.1095 32.2782 31.0404 31.8598 33.2245 31.1001C34.951 30.4995 35.6878 29.8495 35.8728 29.5033L35.8727 25.0439C35.3746 25.3062 34.792 25.5591 34.1097 25.7965C31.6484 26.6528 28.4031 27.1243 24.9715 27.1243C21.54 27.1243 18.2947 26.6528 15.8333 25.7965C15.1511 25.5592 14.5684 25.3063 14.0703 25.0439L14.0703 29.5033Z" fill="#FF5703"/>
<path d="M14.0703 37.3519C14.2549 37.6981 14.9916 38.3482 16.7187 38.949C18.9027 39.7087 21.8337 40.1271 24.9717 40.1271C28.1096 40.1271 31.0406 39.7087 33.2246 38.949C34.9516 38.3482 35.6884 37.6981 35.8731 37.3519L35.873 32.8928C35.3749 33.1552 34.7922 33.4081 34.1099 33.6455C31.6486 34.5016 28.4032 34.9731 24.9717 34.9731C21.5401 34.9731 18.2948 34.5016 15.8334 33.6455C15.1511 33.4081 14.5684 33.1552 14.0703 32.8928L14.0703 37.3519Z" fill="#FF5703"/>
<path d="M24.9716 24.4304C28.1096 24.4304 31.0405 24.012 33.2246 23.2523C34.2345 22.9009 34.9055 22.5328 35.3258 22.2184C33.786 20.1265 29.2462 19.1575 24.9716 19.1575C20.697 19.1575 16.1572 20.1265 14.6174 22.2184C15.0377 22.5328 15.7087 22.901 16.7187 23.2523C18.9027 24.012 21.8337 24.4304 24.9716 24.4304Z" fill="#FF5703"/>
<path d="M34.11 41.4934C31.6487 42.3496 28.4033 42.8211 24.9718 42.8211C21.5402 42.8211 18.2949 42.3496 15.8335 41.4934C15.1511 41.256 14.5684 41.0031 14.0703 40.7407L14.0703 43.3291C14.0703 43.3435 14.0705 43.3578 14.071 43.3721C14.121 46.5514 19.7448 47.9999 24.9718 47.9999C30.1987 47.9999 35.8226 46.5515 35.8726 43.3722C35.873 43.3579 35.8733 43.3436 35.8733 43.3292L35.8732 40.7408C35.3751 41.003 34.7924 41.256 34.11 41.4934Z" fill="#FF5703"/>
</svg>
