<svg width="50" height="51" viewBox="0 0 50 51" fill="none" xmlns="http://www.w3.org/2000/svg">
<g clip-path="url(#clip0_215_794)">
<path d="M17.0898 38.0977H32.9102V43.5664H17.0898V38.0977Z" fill="#FF5703"/>
<path d="M24.9997 50.5C27.5913 50.5 29.7969 48.8221 30.5912 46.4961H19.4082C20.2025 48.8221 22.4081 50.5 24.9997 50.5Z" fill="#FF5703"/>
<path d="M24.8962 9.28946C17.1407 9.34405 10.667 15.8381 10.668 23.6222C10.6686 27.9374 12.5861 31.9811 15.9291 34.7165C16.0974 34.8542 16.2497 35.0056 16.385 35.168H33.588C33.7036 35.0336 33.8314 34.9084 33.9722 34.7953C37.3774 32.0579 39.3304 27.9848 39.3304 23.6202C39.3304 15.6448 32.8413 9.23058 24.8962 9.28946ZM31.5612 22.2628L25.8972 26.6573C24.9366 27.4027 23.5344 26.7164 23.5344 25.5V24.096L20.2331 26.6573C19.5948 27.1527 18.6744 27.038 18.1778 26.398C17.6818 25.7588 17.798 24.8386 18.4372 24.3427L24.1013 19.9482C25.0618 19.2028 26.4641 19.8891 26.4641 21.1055V22.5095L29.7653 19.9482C30.4046 19.4523 31.3247 19.5684 31.8206 20.2075C32.3166 20.8467 32.2004 21.7669 31.5612 22.2628Z" fill="#FF5703"/>
<path d="M25 0.5C24.191 0.5 23.5352 1.15586 23.5352 1.96484V4.99219C23.5352 5.80117 24.191 6.45703 25 6.45703C25.809 6.45703 26.4648 5.80117 26.4648 4.99219V1.96484C26.4648 1.15586 25.809 0.5 25 0.5Z" fill="#FF5703"/>
<path d="M10.6706 7.29331C10.0986 6.72124 9.17104 6.72124 8.59897 7.29331C8.0269 7.86538 8.0269 8.79282 8.59897 9.36489L10.7396 11.5055C11.3116 12.0776 12.2391 12.0777 12.8112 11.5055C13.3833 10.9334 13.3833 10.006 12.8112 9.43394L10.6706 7.29331Z" fill="#FF5703"/>
<path d="M7.76367 23.6934C7.76367 22.8844 7.10781 22.2285 6.29883 22.2285H3.27148C2.4625 22.2285 1.80664 22.8844 1.80664 23.6934C1.80664 24.5023 2.4625 25.1582 3.27148 25.1582H6.29883C7.10781 25.1582 7.76367 24.5023 7.76367 23.6934Z" fill="#FF5703"/>
<path d="M46.7285 22.2285H43.7012C42.8922 22.2285 42.2363 22.8844 42.2363 23.6934C42.2363 24.5023 42.8922 25.1582 43.7012 25.1582H46.7285C47.5375 25.1582 48.1934 24.5023 48.1934 23.6934C48.1934 22.8844 47.5375 22.2285 46.7285 22.2285Z" fill="#FF5703"/>
<path d="M45.635 30.6552L42.8382 29.4967C42.0908 29.187 41.2339 29.542 40.9242 30.2895C40.6146 31.0369 40.9695 31.8938 41.717 32.2034L44.5138 33.3619C45.2641 33.6728 46.1193 33.3137 46.4278 32.5691C46.7374 31.8216 46.3825 30.9648 45.635 30.6552Z" fill="#FF5703"/>
<path d="M18.0374 3.05816C17.7277 2.3108 16.8709 1.95592 16.1234 2.26539C15.3759 2.57496 15.0211 3.4319 15.3306 4.17936L16.4891 6.97623C16.7983 7.72252 17.6546 8.07906 18.4031 7.769C19.1506 7.45943 19.5054 6.6025 19.1959 5.85504L18.0374 3.05816Z" fill="#FF5703"/>
<path d="M8.28366 15.1833L5.48678 14.0248C4.73932 13.7151 3.88249 14.0701 3.57282 14.8175C3.26325 15.565 3.61813 16.4218 4.36559 16.7315L7.16247 17.89C7.91276 18.2008 8.76794 17.8418 9.07643 17.0972C9.386 16.3498 9.03112 15.4928 8.28366 15.1833Z" fill="#FF5703"/>
<path d="M41.401 7.29331C40.8291 6.72124 39.9015 6.72124 39.3294 7.29331L37.1888 9.43394C36.6167 10.006 36.6167 10.9334 37.1888 11.5055C37.7608 12.0776 38.6883 12.0777 39.2604 11.5055L41.401 9.36489C41.973 8.79272 41.973 7.86528 41.401 7.29331Z" fill="#FF5703"/>
<path d="M33.8757 2.2654C33.1282 1.95593 32.2714 2.31072 31.9617 3.05818L30.8032 5.85505C30.4937 6.60251 30.8485 7.45935 31.596 7.76902C32.3464 8.07976 33.2015 7.72078 33.51 6.97624L34.6685 4.17937C34.978 3.43181 34.6231 2.57497 33.8757 2.2654Z" fill="#FF5703"/>
<path d="M7.16247 29.4967L4.36559 30.6552C3.61813 30.9648 3.26325 31.8217 3.57282 32.5692C3.8819 33.3154 4.73825 33.6721 5.48678 33.362L8.28366 32.2035C9.03112 31.8939 9.386 31.037 9.07643 30.2895C8.76676 29.542 7.91003 29.187 7.16247 29.4967Z" fill="#FF5703"/>
<path d="M40.9242 17.0972C41.2333 17.8434 42.0896 18.2002 42.8382 17.89L45.635 16.7315C46.3825 16.4219 46.7374 15.565 46.4278 14.8175C46.1182 14.0701 45.2614 13.7151 44.5139 14.0248L41.717 15.1833C40.9696 15.4928 40.6147 16.3498 40.9242 17.0972Z" fill="#FF5703"/>
</g>
<defs>
<clipPath id="clip0_215_794">
<rect width="50" height="50" fill="white" transform="translate(0 0.5)"/>
</clipPath>
</defs>
</svg>
