<svg width="24" height="24" viewBox="0 0 24 24" fill="none" xmlns="http://www.w3.org/2000/svg">
<path d="M20.5062 20.5065V14.2756C20.5062 11.2133 19.8469 8.87402 16.2743 8.87402C14.5517 8.87402 13.4034 9.80972 12.9355 10.7029H12.893V9.15048H9.51172V20.5065H13.0419V14.871C13.0419 13.3824 13.3183 11.9576 15.1472 11.9576C16.9548 11.9576 16.976 13.6376 16.976 14.9561V20.4852H20.5062V20.5065Z" fill="#6D6D6D"/>
<path d="M3.76953 9.15039H7.29966V20.5064H3.76953V9.15039Z" fill="#6D6D6D"/>
<path d="M5.53566 3.49414C4.40857 3.49414 3.49414 4.40857 3.49414 5.53566C3.49414 6.66276 4.40857 7.59845 5.53566 7.59845C6.66276 7.59845 7.57719 6.66276 7.57719 5.53566C7.57719 4.40857 6.66276 3.49414 5.53566 3.49414Z" fill="#6D6D6D"/>
</svg>
