<svg width="24" height="24" viewBox="0 0 24 24" fill="none" xmlns="http://www.w3.org/2000/svg">
<path fill-rule="evenodd" clip-rule="evenodd" d="M14.7163 3.03423C12.8995 2.98859 11.1005 2.98859 9.28371 3.03423L9.2296 3.03559C7.81116 3.0712 6.66978 3.09986 5.75507 3.25916C4.79739 3.42595 4.01905 3.74583 3.36151 4.40588C2.70671 5.06316 2.3885 5.83032 2.22489 6.77247C2.06911 7.66956 2.04538 8.78307 2.01599 10.1624L2.01482 10.2171C1.99506 11.1439 1.99506 12.0653 2.01483 12.9922L2.01599 13.0468C2.04538 14.4263 2.06911 15.5398 2.22489 16.4369C2.3885 17.379 2.70672 18.1462 3.36151 18.8034C4.01905 19.4635 4.79739 19.7834 5.75507 19.9502C6.66978 20.1094 7.81113 20.1381 9.22955 20.1737L9.28371 20.1751C11.1005 20.2207 12.8995 20.2207 14.7163 20.1751L14.7704 20.1737C16.1888 20.1381 17.3302 20.1094 18.2449 19.9502C19.2026 19.7834 19.9809 19.4635 20.6385 18.8034C21.2933 18.1462 21.6115 17.379 21.7751 16.4369C21.9309 15.5398 21.9546 14.4263 21.984 13.0468L21.9852 12.9922C22.0049 12.0653 22.0049 11.1439 21.9852 10.2171L21.984 10.1624C21.9546 8.78309 21.9309 7.66957 21.7751 6.77249C21.6115 5.83034 21.2933 5.06318 20.6385 4.4059C19.9809 3.74585 19.2026 3.42596 18.2449 3.25918C17.3302 3.09987 16.1888 3.07121 14.7704 3.0356L14.7163 3.03423ZM7.70402 7.74839C7.37234 7.55229 6.94449 7.6622 6.74839 7.99387C6.55229 8.32556 6.66219 8.75341 6.99387 8.94951L9.73063 10.5676C10.5407 11.0465 11.2397 11.3722 12.0001 11.3722C12.7605 11.3722 13.4595 11.0465 14.2696 10.5676L17.0063 8.94951C17.338 8.75341 17.4479 8.32556 17.2518 7.99387C17.0557 7.6622 16.6279 7.55229 16.2962 7.74839L13.5594 9.36647C12.774 9.83082 12.3564 9.97687 12.0001 9.97687C11.6438 9.97687 11.2262 9.83082 10.4407 9.36647L7.70402 7.74839Z" fill="#6D6D6D"/>
</svg>
