<svg width="29" height="28" viewBox="0 0 29 28" fill="none" xmlns="http://www.w3.org/2000/svg">
<g clip-path="url(#clip0_215_827)">
<path d="M21.0625 21.0154L15.3203 17.7341V24.6357L21.0625 27.9457V21.0154Z" fill="#555966"/>
<path d="M22.7031 27.9453L28.0465 24.8907C28.3244 24.7514 28.5 24.4677 28.5 24.1569V17.7339L22.7031 21.0149V27.9453Z" fill="#555966"/>
<path d="M14.1669 0.0162125L8.47452 2.98814L14.5 6.41102L20.5254 2.98814L14.833 0.0162125C14.6211 -0.0779953 14.3788 -0.0779953 14.1669 0.0162125Z" fill="#555966"/>
<path d="M27.9761 16.1439L21.8835 13.125L15.8457 16.1439L21.8835 19.5946L27.9761 16.1439Z" fill="#555966"/>
<path d="M0.953308 24.8911L6.29688 27.9457V21.0154L0.5 17.7341V24.1574C0.5 24.4682 0.675385 24.7519 0.953308 24.8911Z" fill="#555966"/>
<path d="M7.9375 27.9453L13.6797 24.6529V17.7339L7.9375 21.0149V27.9453Z" fill="#555966"/>
<path d="M1.02539 16.1439L7.11792 19.5946L13.1558 16.1439L7.11792 13.125L1.02539 16.1439Z" fill="#555966"/>
<path d="M15.3203 14.5725L21.0625 11.7007V4.5542L15.3203 7.83524V14.5725Z" fill="#555966"/>
<path d="M7.9375 11.7012L13.6797 14.5729V7.83569L7.9375 4.55444V11.7012Z" fill="#555966"/>
</g>
<defs>
<clipPath id="clip0_215_827">
<rect width="28" height="28" fill="white" transform="translate(0.5)"/>
</clipPath>
</defs>
</svg>
