<svg width="29" height="28" viewBox="0 0 29 28" fill="none" xmlns="http://www.w3.org/2000/svg">
<path d="M24.396 6.31301L15.5014 1.89134C15.19 1.73954 14.8482 1.66064 14.5017 1.66064C14.1553 1.66064 13.8135 1.73954 13.5021 1.89134L4.60747 6.31301C4.19321 6.51129 3.84889 6.83065 3.62004 7.22884C3.39119 7.62703 3.2886 8.08531 3.32582 8.54307L3.56934 10.9269C3.88293 14.0326 4.93248 17.0188 6.63092 19.6378C8.32936 22.2568 10.6278 24.4331 13.3355 25.9862C13.6753 26.1795 14.0595 26.2811 14.4505 26.2811C14.8414 26.2811 15.2257 26.1795 15.5655 25.9862C18.2795 24.4416 20.5859 22.2719 22.2933 19.6573C24.0007 17.0427 25.0599 14.0585 25.3829 10.9526L25.6264 8.5687C25.6734 8.1124 25.581 7.65257 25.3614 7.24986C25.1417 6.84716 24.8051 6.52051 24.396 6.31301ZM15.4245 19.4627V20.4111C15.4245 20.666 15.3233 20.9105 15.143 21.0908C14.9627 21.271 14.7182 21.3723 14.4633 21.3723C14.2084 21.3723 13.9639 21.271 13.7836 21.0908C13.6033 20.9105 13.5021 20.666 13.5021 20.4111V19.4755C12.7593 19.3612 12.0455 19.1045 11.4002 18.7193C11.1884 18.5913 11.0351 18.3857 10.9728 18.1463C10.9106 17.9068 10.9444 17.6526 11.0669 17.4377C11.1992 17.2308 11.4048 17.0815 11.6424 17.0198C11.8801 16.958 12.1323 16.9882 12.3486 17.1044C12.9445 17.4633 13.6267 17.6538 14.3223 17.6555H14.8478C15.1622 17.7184 15.4887 17.6538 15.7555 17.476C16.0223 17.2981 16.2075 17.0215 16.2704 16.7071C16.3333 16.3927 16.2687 16.0662 16.0908 15.7994C15.913 15.5326 15.6364 15.3474 15.322 15.2845L13.0279 14.4643C12.3787 14.2365 11.8237 13.7993 11.4502 13.2216C11.0767 12.6439 10.9058 11.9584 10.9645 11.2729C11.0232 10.5875 11.3082 9.94102 11.7745 9.43523C12.2408 8.92945 12.8621 8.59305 13.5405 8.47898V7.59465C13.5405 7.33972 13.6418 7.09522 13.8221 6.91496C14.0023 6.73469 14.2468 6.63342 14.5017 6.63342C14.7567 6.63342 15.0012 6.73469 15.1814 6.91496C15.3617 7.09522 15.463 7.33972 15.463 7.59465V8.53025C16.2058 8.64451 16.9195 8.90127 17.5649 9.28642C17.7766 9.41438 17.93 9.62002 17.9922 9.85945C18.0545 10.0989 18.0207 10.3532 17.8981 10.5681C17.7658 10.7749 17.5603 10.9242 17.3226 10.986C17.085 11.0478 16.8328 11.0175 16.6165 10.9013C16.0205 10.5424 15.3384 10.3519 14.6427 10.3502H14.1173C13.8033 10.3502 13.5021 10.474 13.2789 10.6947C13.0558 10.9155 12.9287 11.2154 12.9253 11.5293C12.9364 11.7735 13.0171 12.0094 13.1579 12.2093C13.2987 12.4091 13.4937 12.5645 13.7199 12.6571L16.0141 13.4646C16.6632 13.6924 17.2182 14.1295 17.5918 14.7072C17.9653 15.2849 18.1361 15.9704 18.0774 16.6559C18.0187 17.3413 17.7338 17.9878 17.2674 18.4936C16.8011 18.9994 16.1799 19.3358 15.5014 19.4498L15.4245 19.4627Z" fill="#555966"/>
</svg>
