<svg width="50" height="50" viewBox="0 0 50 50" fill="none" xmlns="http://www.w3.org/2000/svg">
<path d="M47.8096 20.3193C47.2031 10.1104 38.7061 1.99219 28.3477 1.99219H21.6523C11.2939 1.99219 2.79688 10.1104 2.19043 20.3193C0.90332 20.874 0 22.1562 0 23.6445V31.1963C0 33.1924 1.62402 34.8164 3.62012 34.8164H6.5498V20.0244H5.14941C5.89355 11.5732 13.0107 4.92188 21.6523 4.92188H28.3477C36.9893 4.92188 44.1064 11.5732 44.8506 20.0244H43.4502V34.8164H46.3799C48.376 34.8164 50 33.1924 50 31.1963V23.6445C50 22.1562 49.0967 20.874 47.8096 20.3193Z" fill="#FF5703"/>
<path d="M36.5117 15.4395H13.4902C11.2793 15.4395 9.48047 17.2383 9.48047 19.4492V37.6992C9.48047 39.9102 11.2793 41.709 13.4902 41.709H18.5107L23.3936 47.4883C23.6719 47.8174 24.0811 48.0078 24.5127 48.0078C24.9443 48.0078 25.3535 47.8174 25.6318 47.4883L30.5146 41.709H36.5117C38.7227 41.709 40.5215 39.9102 40.5215 37.6992V19.4492C40.5215 17.2383 38.7227 15.4395 36.5117 15.4395ZM30.3545 22.7754C31.1631 22.7754 31.8193 23.4307 31.8193 24.2402C31.8193 25.0488 31.1631 25.7051 30.3545 25.7051C29.5459 25.7051 28.8896 25.0488 28.8896 24.2402C28.8896 23.4307 29.5459 22.7754 30.3545 22.7754ZM19.0273 22.7754C19.8359 22.7754 20.4922 23.4307 20.4922 24.2402C20.4922 25.0488 19.8359 25.7051 19.0273 25.7051C18.2188 25.7051 17.5625 25.0488 17.5625 24.2402C17.5625 23.4307 18.2188 22.7754 19.0273 22.7754ZM32.3027 31.6621C30.0508 33.6592 27.5254 34.6582 25.001 34.6582C22.4756 34.6582 19.9512 33.6602 17.6992 31.6621C17.0937 31.126 17.0381 30.2002 17.5752 29.5947C18.1123 28.9893 19.0381 28.9336 19.6436 29.4707C21.3457 30.9805 23.1729 31.7354 25.001 31.7354C26.8291 31.7354 28.6572 30.9805 30.3594 29.4707C30.9639 28.9336 31.8896 28.9893 32.4268 29.5947C32.9639 30.2002 32.9082 31.126 32.3027 31.6621Z" fill="#FF5703"/>
</svg>
