<svg width="50" height="50" viewBox="0 0 50 50" fill="none" xmlns="http://www.w3.org/2000/svg">
<path fill-rule="evenodd" clip-rule="evenodd" d="M6.31572 20.6262L15.505 12.5836C15.3776 12.2358 15.3082 11.8602 15.3082 11.4683C15.3082 9.67651 16.7607 8.22407 18.5524 8.22407C20.31 8.22407 21.7409 9.62153 21.7951 11.3659L29.058 13.9086C29.653 13.2101 30.539 12.767 31.5284 12.767C32.0867 12.767 32.612 12.9081 33.0707 13.1564L41.4437 6.00259C41.3249 5.66528 41.2601 5.30259 41.2601 4.92466C41.2601 3.13296 42.7126 1.68042 44.5043 1.68042C46.2962 1.68042 47.7487 3.13296 47.7487 4.92466C47.7487 6.71655 46.2962 8.16909 44.5043 8.16909C43.9461 8.16909 43.4207 8.02808 42.9621 7.77974L34.5892 14.9335C34.7079 15.2709 34.7728 15.6335 34.7728 16.0115C34.7728 17.8032 33.3202 19.2557 31.5283 19.2557C29.7709 19.2557 28.34 17.8583 28.2858 16.114L21.0229 13.5712C20.4278 14.2698 19.542 14.7128 18.5524 14.7128C18.0076 14.7128 17.4943 14.5784 17.0436 14.3411L7.8543 22.3836C7.98164 22.7314 8.05107 23.1071 8.05107 23.499C8.05107 25.2909 6.59854 26.7432 4.80664 26.7432C3.01504 26.743 1.5625 25.2907 1.5625 23.4988C1.5625 21.7069 3.01504 20.2545 4.80674 20.2545C5.35156 20.2545 5.86494 20.3889 6.31572 20.6262ZM42.0363 14.576C41.2296 14.576 40.5715 15.234 40.5715 16.0409V45.9362C40.5715 46.743 41.2296 47.401 42.0363 47.401H46.9727C47.7796 47.401 48.4376 46.743 48.4376 45.9362V16.0409C48.4376 15.234 47.7797 14.576 46.9727 14.576H42.0363ZM29.0603 26.5223C28.2534 26.5223 27.5955 27.1803 27.5955 27.9872V46.2424C27.5955 47.0494 28.2535 47.7073 29.0603 47.7073H33.9968C34.8036 47.7073 35.4615 47.0493 35.4615 46.2424C35.4615 40.1575 35.4615 34.0723 35.4615 27.9872C35.4615 27.1803 34.8036 26.5223 33.9968 26.5223C32.3512 26.5223 30.7059 26.5223 29.0603 26.5223ZM16.0844 22.2335C15.2774 22.2335 14.6194 22.8916 14.6194 23.6984V46.5487C14.6194 47.3555 15.2773 48.0135 16.0844 48.0135H21.0207C21.8274 48.0135 22.4855 47.3555 22.4855 46.5487V23.6984C22.4855 22.8916 21.8274 22.2335 21.0207 22.2335H16.0844ZM3.1084 34.8426H8.04463C8.85146 34.8426 9.50957 35.5006 9.50957 36.3075V46.8548C9.50957 47.6617 8.85146 48.3197 8.04463 48.3197H3.1084C2.30156 48.3197 1.64346 47.6617 1.64346 46.8548V36.3075C1.64355 35.5005 2.30166 34.8426 3.1084 34.8426Z" fill="#FF5703"/>
</svg>
